<?xml version="1.0"?>
<svg xmlns="http://www.w3.org/2000/svg" width="207mm" height="153mm" version="1.1" viewBox="0 0 207 153"><rect width="207" height="153" fill="#fff"/>
 <g fill="none"><path d="m34 9c35 50 103 84 154 89m-169-60c26 49 74 82 169 92" stroke="#000" stroke-width=".6"/><path d="m5 7v141l194 0" stroke="#000"/><path d="m120 78c10 19 18 32 35 47-24.6-4.6-45.4-10.8-63-19-14-17-24-36-29-65 17 15 36.8 27.5 57 37z" stroke="#00f"/><path d="m116.3 64.7c.9 6.6-6.6-.9-5.7 5.7 0 5.7-5.7 0-5.7 5.7" stroke="#c66" stroke-width=".5"/><path d="m103.8 72.9-.3 8.9 4.3-7.7l-2.7 1.9" fill="#c66"/><path d="m113.3 104.7c.9 6.6-6.6-.9-5.7 5.7 0 5.7-5.7 0-5.7 5.7" stroke="#f00" stroke-width=".5"/><path d="m100.8 112.9-.3 8.9 4.3-7.7-2.7 1.9" fill="#f00"/></g>
 <path d="m8 11-3-9-3 9l3-3m191 143 9-3-9-3 3 3"/><path d="m130.5 116.4-9.5.6 7.9 5.2-2.1-3.7m-2.9-27.7 7.1 6.3-2-9.3l-1.1 4.1m-44.9-3.7-7.1-6.3 1.9 9.3 1.1-4.1m12.7-21.1 9.3 1.9l-6.3-7.1 1.1 4.1" fill="#00f"/>
 <g fill="#00f"><circle class="fil5 str4" cx="63" cy="41" r="2"/><circle class="fil5 str4" cx="92" cy="106" r="2"/><circle class="fil5 str4" cx="120" cy="78" r="2"/><circle class="fil5 str4" cx="155" cy="125" r="2"/></g>
 <g font-family="Times" font-size="13px"><switch><text x="154" y="59" id="trsvg19-ro" systemLanguage="ro"><tspan id="trsvg1-ro">T</tspan><tspan baseline-shift="sub" font-size="10px" id="trsvg2-ro"> </tspan><tspan id="trsvg3-ro">&gt; T</tspan><tspan baseline-shift="sub" font-size="10px" id="trsvg4-ro"> 0</tspan></text><text x="154" y="59" id="trsvg19"><tspan id="trsvg1">T</tspan><tspan baseline-shift="sub" font-size="10px" id="trsvg2">1</tspan><tspan id="trsvg3"> &gt; T</tspan><tspan baseline-shift="sub" font-size="10px" id="trsvg4">2</tspan></text></switch><switch><text x="178" y="92" id="trsvg20-ro" systemLanguage="ro"><tspan id="trsvg5-ro">T</tspan><tspan baseline-shift="sub" font-size="10px" id="trsvg6-ro"> </tspan></text><text x="178" y="92" id="trsvg20"><tspan id="trsvg5">T</tspan><tspan baseline-shift="sub" font-size="10px" id="trsvg6">1</tspan></text></switch><switch><text x="180" y="124" id="trsvg21-ro" systemLanguage="ro"><tspan id="trsvg7-ro">T</tspan><tspan baseline-shift="sub" font-size="10px" id="trsvg8-ro"> 0</tspan></text><text x="180" y="124" id="trsvg21"><tspan id="trsvg7">T</tspan><tspan baseline-shift="sub" font-size="10px" id="trsvg8">2</tspan></text></switch><switch><text x="101" y="60" id="trsvg22-ro" systemLanguage="ro"><tspan id="trsvg9-ro">Q</tspan><tspan baseline-shift="sub" font-size="10px" id="trsvg10-ro"> </tspan></text><text x="101" y="60" id="trsvg22"><tspan id="trsvg9">Q</tspan><tspan baseline-shift="sub" font-size="10px" id="trsvg10">1</tspan></text></switch><switch><text x="104" y="126" id="trsvg23-ro" systemLanguage="ro"><tspan id="trsvg11-ro">Q</tspan><tspan baseline-shift="sub" font-size="10px" id="trsvg12-ro"> 0</tspan></text><text x="104" y="126" id="trsvg23"><tspan id="trsvg11">Q</tspan><tspan baseline-shift="sub" font-size="10px" id="trsvg12">2</tspan></text></switch><switch><text x="9" y="12" id="trsvg24-ro" systemLanguage="ro"><tspan id="trsvg13-ro">p</tspan></text><text x="9" y="12" id="trsvg24"><tspan id="trsvg13">P</tspan></text></switch><switch><text x="190" y="145" id="trsvg25"><tspan id="trsvg14">V</tspan></text></switch><switch><text x="65" y="41" fill="#00f" id="trsvg26"><tspan id="trsvg15">1</tspan><tspan x="123" y="78" id="trsvg16">2</tspan><tspan x="87" y="118" id="trsvg17">4</tspan><tspan x="153" y="137" id="trsvg18">3</tspan></text></switch></g></svg>
