
<svg width="476" height="481" xmlns="http://www.w3.org/2000/svg">
<marker id="a" overflow="visible" orient="auto">
<path transform="scale(.4) translate(10)" d="m0 0 5-5-18 5 18 5-5-5z" stroke="#000"/>
</marker>
<marker id="c" overflow="visible" orient="auto">
<path transform="scale(.4) rotate(180) translate(10)" d="m0 0 5-5-18 5 18 5-5-5z" fill="#f00" stroke="#f00"/>
</marker>
<path d="m45 439 2-222h88l-89 222m89-222 1-66h161l-162 66m75 158 87-222v222zm-163 64 163-64v63" fill="#ff0"/>
<path d="m210 375-164 64 89-222 162-64z" fill="#fdc"/>

<g stroke="#f00" stroke-width="4">

<g marker-start="url(#a)" stroke="#000">
<path d="m46 35v404"/>
<path d="m449 439h-404"/>
</g>

<g marker-end="url(#c)">
<path d="m46 439 162-403"/>
<path d="m46 439 404-158"/>
</g>
<path d="m46 439 250-287" stroke="#00f"/>
<path d="m135 217 161-65m-86 223 86-223"/>
<path d="m210 375v64m-75-222 1-65h158" fill="none" stroke-width="2"/>
<path d="m46 439h164" stroke-width="6"/>
</g>

<g stroke="#000" stroke-width="2">
<path d="m46 217v222" stroke-width="6"/>
<path d="m296 375v-223m0 223h-83m-167-158h89"/>
<path d="m46 439 416-416" stroke="#0f0" stroke-dasharray="15,8"/>
<path d="m133 152h-86m249 223v64" stroke="#000" stroke-dasharray="6,6"/>
</g>
<path d="m52 439a6 6 0 1 0 0 1 z m0-287a6 6 0 1 0 0 1 z m250 287a6 6 0 1 0 0 1 z "/>
<path d="m217 375a7 7 0 1 0 0 1 z m-75-158a7 7 0 1 0 0 1 z " fill="#f00"/>
<path d="m303 152a7 7 0 1 0 0 1 z" fill="#00f"/>
<text font-size="40">
<tspan x="302" y="141" fill="#00f">P</tspan>
<tspan x="10" y="160">w</tspan>
<tspan x="286" y="468">x</tspan>
<tspan x="143" y="244" fill="#f00">w'</tspan>
<tspan x="187" y="362" fill="#f00">x'</tspan>
</text>
<text fill="#f00" font-family="sans-serif" font-size="30px" font-style="italic">
<tspan x="169" y="32">ct'</tspan>
<tspan x="216" y="139">r</tspan>
<tspan x="111" y="188">b</tspan>
<tspan x="200" y="179">n</tspan>
<tspan x="62" y="316">m</tspan>
<tspan x="254" y="288">m</tspan>
<tspan x="147" y="420">n</tspan>
<tspan x="216" y="413">b</tspan>
<tspan x="152" y="465">r</tspan>
</text>
<text font-family="sans-serif" font-size="30px" font-style="italic">
<tspan x="56" y="31">ct</tspan>
<tspan x="75" y="208">s</tspan>
<tspan x="251" y="398">s</tspan>
<tspan x="20" y="340">a</tspan>
<tspan x="305" y="274">a</tspan>
<tspan x="440" y="425">x</tspan>
<tspan x="435" y="270">x'</tspan>
</text>
</svg>
