<?xml version="1.0" encoding="UTF-8" standalone="no"?>
<!-- Created with Inkscape (http://www.inkscape.org/) -->
<svg
   xmlns:svg="http://www.w3.org/2000/svg"
   xmlns="http://www.w3.org/2000/svg"
   version="1.0"
   width="309.77802"
   height="157.11501"
   id="svg2">
  <defs
     id="defs4" />
  <g
     id="g12">
    <path
       d="M 237.914,120.77 C 237.914,112.652 227.16,104.863 208.024,99.1251 C 188.887,93.3829 162.93,90.1563 135.867,90.1563 C 108.801,90.1563 82.8476,93.3829 63.707,99.1251 C 44.5703,104.863 33.8203,112.652 33.8203,120.77 C 33.8203,128.891 44.5703,136.676 63.707,142.418 C 82.8476,148.16 108.801,151.387 135.867,151.387 C 162.93,151.387 188.887,148.16 208.024,142.418 C 227.16,136.676 237.914,128.891 237.914,120.77"
       id="path14"
       style="fill:#dbdbdb;fill-rule:evenodd;stroke:none" />
    <path
       d="M 237.914,120.77 C 237.914,112.652 227.16,104.863 208.024,99.1251 C 188.887,93.3829 162.93,90.1563 135.867,90.1563 C 108.801,90.1563 82.8476,93.3829 63.707,99.1251 C 44.5703,104.863 33.8203,112.652 33.8203,120.77 C 33.8203,128.891 44.5703,136.676 63.707,142.418 C 82.8476,148.16 108.801,151.387 135.867,151.387 C 162.93,151.387 188.887,148.16 208.024,142.418 C 227.16,136.676 237.914,128.891 237.914,120.77 z"
       id="path16"
       style="fill:none;stroke:#000000;stroke-width:1.79999995;stroke-linejoin:round" />
    <path
       d="M 135.867,120.77 L 237.914,120.77"
       id="path18"
       style="fill:none;stroke:#000000;stroke-width:1.79999995;stroke-linecap:round;stroke-linejoin:round" />
    <path
       d="M 230.52,123.832 L 237.914,120.77 L 230.52,117.707"
       id="path20"
       style="fill:#000000;fill-rule:evenodd;stroke:none" />
    <path
       d="M 230.52,123.832 L 237.914,120.77 L 230.52,117.707 L 230.52,123.832 z"
       id="path22"
       style="fill:none;stroke:#000000;stroke-width:1.79999995;stroke-linecap:round;stroke-linejoin:round" />
    <path
       d="M 143.258,117.707 L 135.867,120.77 L 143.258,123.832"
       id="path24"
       style="fill:#000000;fill-rule:evenodd;stroke:none" />
    <path
       d="M 143.258,117.707 L 135.867,120.77 L 143.258,123.832 L 143.258,117.707 z"
       id="path26"
       style="fill:none;stroke:#000000;stroke-width:1.79999995;stroke-linecap:round;stroke-linejoin:round" />
    <path
       d="M 182.762,113.449 C 182.672,113.895 182.492,114.582 182.492,114.734 C 182.492,115.27 182.914,115.539 183.36,115.539 C 183.719,115.539 184.258,115.301 184.465,114.703 C 184.528,114.582 185.543,110.52 185.66,109.98 C 185.903,108.996 186.438,106.902 186.617,106.094 C 186.738,105.707 187.574,104.301 188.293,103.645 C 188.531,103.434 189.399,102.656 190.684,102.656 C 191.461,102.656 191.91,103.016 191.938,103.016 C 191.043,103.168 190.383,103.883 190.383,104.66 C 190.383,105.141 190.715,105.707 191.52,105.707 C 192.328,105.707 193.164,105.02 193.164,103.941 C 193.164,102.898 192.207,102 190.684,102 C 188.742,102 187.426,103.465 186.86,104.301 C 186.617,102.957 185.543,102 184.137,102 C 182.762,102 182.195,103.168 181.926,103.703 C 181.387,104.719 181,106.512 181,106.602 C 181,106.902 181.297,106.902 181.36,106.902 C 181.656,106.902 181.688,106.871 181.867,106.215 C 182.375,104.094 182.973,102.656 184.047,102.656 C 184.555,102.656 184.977,102.898 184.977,104.031 C 184.977,104.66 184.887,104.988 184.496,106.543 L 182.762,113.449 z"
       id="path28"
       style="fill:#000000;fill-rule:evenodd;stroke:none" />
    <path
       d="M 237.914,120.77 L 288.938,120.77"
       id="path30"
       style="fill:none;stroke:#000000;stroke-width:1.79999995;stroke-linecap:round;stroke-linejoin:round" />
    <path
       d="M 281.543,123.832 L 288.938,120.77 L 281.543,117.711"
       id="path32"
       style="fill:#000000;fill-rule:evenodd;stroke:none" />
    <path
       d="M 281.543,123.832 L 288.938,120.77 L 281.543,117.711 L 281.543,123.832 z"
       id="path34"
       style="fill:none;stroke:#000000;stroke-width:1.79999995;stroke-linecap:round;stroke-linejoin:round" />
    <path
       d="M 309.66,112.824 C 309.778,112.406 309.778,112.344 309.778,112.137 C 309.778,111.598 309.36,111.328 308.91,111.328 C 308.613,111.328 308.133,111.508 307.863,111.957 C 307.805,112.105 307.567,113.031 307.445,113.57 C 307.238,114.348 307.028,115.156 306.848,115.961 L 305.504,121.34 C 305.383,121.789 304.098,123.883 302.125,123.883 C 300.602,123.883 300.274,122.566 300.274,121.461 C 300.274,120.086 300.781,118.234 301.797,115.602 C 302.278,114.379 302.395,114.051 302.395,113.453 C 302.395,112.105 301.438,111 299.945,111 C 297.106,111 296,115.336 296,115.602 C 296,115.902 296.297,115.902 296.36,115.902 C 296.656,115.902 296.688,115.844 296.836,115.363 C 297.645,112.555 298.84,111.656 299.856,111.656 C 300.094,111.656 300.602,111.656 300.602,112.613 C 300.602,113.363 300.305,114.141 300.094,114.707 C 298.899,117.875 298.36,119.578 298.36,120.984 C 298.36,123.645 300.242,124.539 302.008,124.539 C 303.172,124.539 304.188,124.031 305.028,123.195 C 304.637,124.75 304.278,126.215 303.082,127.797 C 302.305,128.813 301.172,129.68 299.797,129.68 C 299.375,129.68 298.031,129.59 297.524,128.426 C 298.004,128.426 298.391,128.426 298.809,128.066 C 299.11,127.797 299.406,127.41 299.406,126.84 C 299.406,125.914 298.602,125.797 298.301,125.797 C 297.613,125.797 296.629,126.273 296.629,127.738 C 296.629,129.23 297.942,130.34 299.797,130.34 C 302.875,130.34 305.953,127.617 306.789,124.242 L 309.66,112.824 z"
       id="path36"
       style="fill:#000000;fill-rule:evenodd;stroke:none" />
    <path
       d="M 63.707,142.418 L 20.414,155.406"
       id="path38"
       style="fill:none;stroke:#000000;stroke-width:1.79999995;stroke-linecap:round;stroke-linejoin:round" />
    <path
       d="M 26.6133,150.352 L 20.414,155.406 L 28.375,156.215"
       id="path40"
       style="fill:#000000;fill-rule:evenodd;stroke:none" />
    <path
       d="M 26.6133,150.352 L 20.414,155.406 L 28.375,156.215 L 26.6133,150.352 z"
       id="path42"
       style="fill:none;stroke:#000000;stroke-width:1.79999995;stroke-linecap:round;stroke-linejoin:round" />
    <path
       d="M 135.867,120.77 L 63.707,142.418"
       id="path44"
       style="fill:none;stroke:#000000;stroke-width:1.79999995;stroke-linecap:round;stroke-linejoin:round;stroke-dasharray:6, 3" />
    <path
       d="M 9.11719,142.184 C 9.29301,141.406 9.98051,138.656 12.0742,138.656 C 12.2226,138.656 12.9414,138.656 13.5703,139.047 C 12.7305,139.195 12.1328,139.941 12.1328,140.66 C 12.1328,141.141 12.4609,141.707 13.2695,141.707 C 13.9258,141.707 14.8828,141.168 14.8828,139.973 C 14.8828,138.418 13.1211,138 12.1055,138 C 10.3711,138 9.32421,139.586 8.96484,140.273 C 8.21875,138.301 6.60547,138 5.73828,138 C 2.6289,138 0.925782,141.855 0.925782,142.602 C 0.925782,142.902 1.22656,142.902 1.28515,142.902 C 1.52343,142.902 1.61328,142.844 1.67187,142.574 C 2.6914,139.406 4.66015,138.656 5.67969,138.656 C 6.24609,138.656 7.29297,138.926 7.29297,140.66 C 7.29297,141.586 6.78515,143.59 5.67969,147.773 C 5.19922,149.625 4.15234,150.883 2.83984,150.883 C 2.66015,150.883 1.97265,150.883 1.34375,150.492 C 2.08984,150.344 2.75,149.715 2.75,148.879 C 2.75,148.074 2.08984,147.832 1.64453,147.832 C 0.746092,147.832 0,148.609 0,149.566 C 0,150.941 1.49219,151.539 2.80859,151.539 C 4.78125,151.539 5.85937,149.449 5.94922,149.27 C 6.30469,150.375 7.38281,151.539 9.17581,151.539 C 12.2539,151.539 13.957,147.684 13.957,146.938 C 13.957,146.637 13.6875,146.637 13.5976,146.637 C 13.3281,146.637 13.2695,146.758 13.2109,146.969 C 12.2226,150.164 10.1914,150.883 9.23441,150.883 C 8.07031,150.883 7.58984,149.926 7.58984,148.91 C 7.58984,148.254 7.76953,147.594 8.09765,146.281 L 9.11719,142.184 z"
       id="path46"
       style="fill:#000000;fill-rule:evenodd;stroke:none" />
    <path
       d="M 135.867,120.77 L 135.867,18.723"
       id="path48"
       style="fill:none;stroke:#000000;stroke-width:1.79999995;stroke-linecap:round;stroke-linejoin:round" />
    <path
       d="M 138.926,26.113 L 135.867,18.723 L 132.805,26.113"
       id="path50"
       style="fill:#000000;fill-rule:evenodd;stroke:none" />
    <path
       d="M 138.926,26.113 L 135.867,18.723 L 132.805,26.113 L 138.926,26.113 z"
       id="path52"
       style="fill:none;stroke:#000000;stroke-width:1.79999995;stroke-linecap:round;stroke-linejoin:round" />
    <path
       d="M 132.11,10.731 C 133.723,8.996 134.59,8.25 135.664,7.32401 C 135.664,7.293 137.52,5.711 138.594,4.633 C 141.434,1.856 142.09,0.417999 142.09,0.300995 C 142.09,0 141.821,0 141.762,0 C 141.551,0 141.461,0.0590057 141.313,0.328003 C 140.418,1.76599 139.789,2.242 139.071,2.242 C 138.356,2.242 137.996,1.793 137.547,1.285 C 136.981,0.597992 136.473,0 135.485,0 C 133.242,0 131.867,2.78101 131.867,3.40601 C 131.867,3.55901 131.957,3.73799 132.227,3.73799 C 132.496,3.73799 132.555,3.586 132.617,3.40601 C 133.184,2.03101 134.918,2.004 135.156,2.004 C 135.785,2.004 136.352,2.211 137.039,2.453 C 138.235,2.899 138.563,2.899 139.34,2.899 C 138.266,4.18401 135.754,6.336 135.188,6.81599 C 133.692,8.16 133.66,8.19099 132.496,9.32401 C 130.465,11.328 129.418,13.031 129.418,13.242 C 129.418,13.539 129.719,13.539 129.778,13.539 C 130.016,13.539 130.074,13.481 130.254,13.152 C 130.942,12.106 131.84,11.297 132.797,11.297 C 133.485,11.297 133.781,11.566 134.528,12.434 C 135.035,13.063 135.574,13.539 136.442,13.539 C 139.403,13.539 141.133,9.742 141.133,8.938 C 141.133,8.789 141.016,8.63699 140.778,8.63699 C 140.508,8.63699 140.445,8.81599 140.356,9.02699 C 139.668,10.969 137.758,11.539 136.77,11.539 C 136.172,11.539 135.633,11.359 135.008,11.149 C 133.992,10.762 133.543,10.641 132.914,10.641 C 132.856,10.641 132.375,10.641 132.11,10.731 z"
       id="path54"
       style="fill:#000000;fill-rule:evenodd;stroke:none" />
  </g>
</svg>
